<?xml version="1.0" encoding="utf-8"?>
<svg version="1.1" id="Ebene_1" xmlns="http://www.w3.org/2000/svg" xmlns:xlink="http://www.w3.org/1999/xlink" x="0px" y="0px"
	 viewBox="0 0 640 171.3" style="enable-background:new 0 0 640 171.3;" xml:space="preserve">
<style type="text/css">
	.st0{fill:#78BE20;}
	.st1{fill-opacity:0;stroke:#000000;stroke-opacity:0;}
	.st2{fill:#FFFFFF;}
	.st3{fill-opacity:0;stroke:#FFFFFF;stroke-opacity:0;}
	.st4{enable-background:new    ;}
</style>
<g>
	<g>
		<path id="c3iWstIWm" d="M171.1,85.7c0,47.3-38.4,85.7-85.7,85.7S-0.2,132.9-0.2,85.7S38.2,0,85.5,0S171.1,38.4,171.1,85.7z"/>
	</g>
</g>
<g>
	<g>
		<path id="e4npLu7GE" d="M640.2,85.7c0,47.3-38.4,85.7-85.7,85.7s-85.7-38.4-85.7-85.7S507.3,0,554.5,0S640.2,38.4,640.2,85.7z"/>
	</g>
</g>
<g>
	<g>
		<path id="b9ugmp8DUi" d="M85.5,0h469.1v171.3H85.5V0z"/>
	</g>
</g>
<g>
	<g>
		<path id="aFC3uDV0d" class="st0" d="M98.3,95.7l1.7,1.6c1.9,1.7,2.9,2.6,3.1,2.8c0.2,0.1,0.3,0.3,0.4,0.4c0.3,0.3,2.6,2.4,2.9,2.7
			c1.8,1.7,2,4.5,0.3,6.3c-0.1,0.1,5.7-5.1,17.2-15.5l-12-10.9L98.3,95.7z"/>
	</g>
	<g>
		<g>
			<path id="aFC3uDV0d_1_" class="st1" d="M98.3,95.7l1.7,1.6c1.9,1.7,2.9,2.6,3.1,2.8c0.2,0.1,0.3,0.3,0.4,0.4
				c0.3,0.3,2.6,2.4,2.9,2.7c1.8,1.7,2,4.5,0.3,6.3c-0.1,0.1,5.7-5.1,17.2-15.5l-12-10.9L98.3,95.7z"/>
		</g>
	</g>
</g>
<g>
	<g>
		<path id="agLHdmN6P" class="st0" d="M152.3,64.5c-0.1-4.1-1.9-8.1-5-10.8c-4-3.6-36.3-32.4-40.4-36c1.1,1.8,0.8,4.2-0.8,5.7
			c-0.2,0.2-1.2,1.1-3,2.7l-0.1,0.1L97.8,31L134,63.3l-9.9,9c15,13.6,23.3,21.1,25,22.6c2.1,1.9,3.3,4.6,3.3,7.4
			c0,0.3,0,0.5-0.1,0.8c0-0.3,0.1-0.6,0.1-0.9c0-3.8,0-33.8,0-37.6c0-0.1,0-0.1,0-0.2C152.3,64.5,152.3,64.5,152.3,64.5z"/>
	</g>
	<g>
		<g>
			<path id="agLHdmN6P_1_" class="st1" d="M152.3,64.5c-0.1-4.1-1.9-8.1-5-10.8c-4-3.6-36.3-32.4-40.4-36c1.1,1.8,0.8,4.2-0.8,5.7
				c-0.2,0.2-1.2,1.1-3,2.7l-0.1,0.1L97.8,31L134,63.3l-9.9,9c15,13.6,23.3,21.1,25,22.6c2.1,1.9,3.3,4.6,3.3,7.4
				c0,0.3,0,0.5-0.1,0.8c0-0.3,0.1-0.6,0.1-0.9c0-3.8,0-33.8,0-37.6c0-0.1,0-0.1,0-0.2C152.3,64.5,152.3,64.5,152.3,64.5z"/>
		</g>
	</g>
</g>
<g>
	<g>
		<path id="b4XxPdZUOm" class="st0" d="M97.7,70.2c-5-4.5-7.7-7-8.3-7.5c-1.8-1.7-2-4.5-0.3-6.3c0.1-0.1,0.2-0.2,0.3-0.3
			c0.2-0.1,0.9-0.8,2.2-2c0.1-0.1,0.1-0.1,0.1-0.1c0.4-0.4,0.8-0.8,1.3-1.2l0,0c-0.3,0.2-0.5,0.4-0.7,0.6
			c-1.4,1.2-8.2,7.4-20.4,18.5l12,10.9L97.7,70.2z"/>
	</g>
	<g>
		<g>
			<path id="b4XxPdZUOm_1_" class="st1" d="M97.7,70.2c-5-4.5-7.7-7-8.3-7.5c-1.8-1.7-2-4.5-0.3-6.3c0.1-0.1,0.2-0.2,0.3-0.3
				c0.2-0.1,0.9-0.8,2.2-2c0.1-0.1,0.1-0.1,0.1-0.1c0.4-0.4,0.8-0.8,1.3-1.2l0,0c-0.3,0.2-0.5,0.4-0.7,0.6
				c-1.4,1.2-8.2,7.4-20.4,18.5l12,10.9L97.7,70.2z"/>
		</g>
	</g>
</g>
<g>
	<g>
		<path id="a1nyLWY7cB" class="st0" d="M91.8,139.8c0.2-0.2,0.3-0.4,0.5-0.5c0.4-0.3,2.2-1.9,5.4-4.9l-35.7-31.8l9.9-9
			C56.5,79.8,48,72.1,46.3,70.6C44.2,68.7,43,66,43,63.1c0-0.3,0-0.6,0-1c0,0.3,0,0.6,0,0.9c0,3.8,0,33.8,0,37.6
			c0,4.2,1.8,8.3,5,11.1c4,3.6,36.4,32.5,40.5,36.1c-1.2-1.8-0.9-4.3,0.7-5.8C89.7,141.6,91.5,140,91.8,139.8z"/>
	</g>
	<g>
		<g>
			<path id="a1nyLWY7cB_1_" class="st1" d="M91.8,139.8c0.2-0.2,0.3-0.4,0.5-0.5c0.4-0.3,2.2-1.9,5.4-4.9l-35.7-31.8l9.9-9
				C56.5,79.8,48,72.1,46.3,70.6C44.2,68.7,43,66,43,63.1c0-0.3,0-0.6,0-1c0,0.3,0,0.6,0,0.9c0,3.8,0,33.8,0,37.6
				c0,4.2,1.8,8.3,5,11.1c4,3.6,36.4,32.5,40.5,36.1c-1.2-1.8-0.9-4.3,0.7-5.8C89.7,141.6,91.5,140,91.8,139.8z"/>
		</g>
	</g>
</g>
<g>
	<g>
		<path id="b36BZH5oGP" class="st2" d="M149.1,94.9c-4.6-4.2-41.4-37.4-45.9-41.6c0,0-0.1-0.1-0.2-0.1c-0.2-0.2-2-1.8-2.2-2
			c-1.7-1.5-4.3-1.5-6,0c-0.2,0.1-1.5,1.4-1.7,1.5c-0.5,0.3-0.9,0.7-1.3,1.1c0,0,0,0-0.1,0.1c-1.3,1.2-2.1,1.9-2.2,2
			c-1.8,1.7-2,4.5-0.3,6.3c0.1,0.1,0.2,0.2,0.3,0.3c0.6,0.5,3.3,3,8.3,7.5l0,0l35.5,32.1c-24.6,22.2-38.2,34.5-40.9,37
			c-0.2,0.2-0.3,0.3-0.5,0.5c-0.2,0.2-2.3,2.1-2.5,2.3c-1.8,1.7-2,4.5-0.3,6.4c0.1,0.1,0.2,0.2,0.3,0.3c0.5,0.5,4.8,4.4,5.3,4.8
			c1.7,1.5,4.3,1.5,6,0c0.6-0.5,3.5-3.2,8.8-8l0,0c23.8-21.5,37-33.4,39.7-35.8c2.1-1.9,3.3-4.6,3.3-7.4
			C152.3,99.5,151.2,96.8,149.1,94.9z"/>
	</g>
	<g>
		<g>
			<path id="b36BZH5oGP_1_" class="st1" d="M149.1,94.9c-4.6-4.2-41.4-37.4-45.9-41.6c0,0-0.1-0.1-0.2-0.1c-0.2-0.2-2-1.8-2.2-2
				c-1.7-1.5-4.3-1.5-6,0c-0.2,0.1-1.5,1.4-1.7,1.5c-0.5,0.3-0.9,0.7-1.3,1.1c0,0,0,0-0.1,0.1c-1.3,1.2-2.1,1.9-2.2,2
				c-1.8,1.7-2,4.5-0.3,6.3c0.1,0.1,0.2,0.2,0.3,0.3c0.6,0.5,3.3,3,8.3,7.5l0,0l35.5,32.1c-24.6,22.2-38.2,34.5-40.9,37
				c-0.2,0.2-0.3,0.3-0.5,0.5c-0.2,0.2-2.3,2.1-2.5,2.3c-1.8,1.7-2,4.5-0.3,6.4c0.1,0.1,0.2,0.2,0.3,0.3c0.5,0.5,4.8,4.4,5.3,4.8
				c1.7,1.5,4.3,1.5,6,0c0.6-0.5,3.5-3.2,8.8-8l0,0c23.8-21.5,37-33.4,39.7-35.8c2.1-1.9,3.3-4.6,3.3-7.4
				C152.3,99.5,151.2,96.8,149.1,94.9z"/>
		</g>
	</g>
</g>
<g>
	<g>
		<path id="axcIAHfV2" class="st2" d="M103.6,100.5c-0.1-0.1-0.3-0.3-0.5-0.4c-0.2-0.2-1.2-1.1-3.1-2.8l-1.9-1.7l0,0l-36-32.4
			l40.9-37l0.1-0.1c1.8-1.6,2.8-2.6,3-2.7c1.8-1.7,2-4.5,0.3-6.3c-0.1-0.1-0.2-0.2-0.3-0.3c-0.5-0.5-4.8-4.4-5.3-4.8
			c-1.7-1.6-4.3-1.6-6,0c-0.6,0.5-3.5,3.2-8.8,8l0,0C62.2,41.4,49,53.3,46.3,55.7c-4.1,3.7-4.4,10-0.7,14.1c0.2,0.2,0.5,0.5,0.7,0.7
			c2.6,2.4,15.8,14.3,39.6,35.8l0,0c5.5,5,8.6,7.8,9.2,8.4c1.7,1.5,4.3,1.5,6,0c0.5-0.5,4.8-4.3,5.3-4.8c1.8-1.7,2-4.5,0.3-6.3
			c-0.1-0.1-0.2-0.2-0.3-0.3C105.9,102.7,103.9,100.8,103.6,100.5z"/>
	</g>
	<g>
		<g>
			<path id="axcIAHfV2_1_" class="st3" d="M103.6,100.5c-0.1-0.1-0.3-0.3-0.5-0.4c-0.2-0.2-1.2-1.1-3.1-2.8l-1.9-1.7l0,0l-36-32.4
				l40.9-37l0.1-0.1c1.8-1.6,2.8-2.6,3-2.7c1.8-1.7,2-4.5,0.3-6.3c-0.1-0.1-0.2-0.2-0.3-0.3c-0.5-0.5-4.8-4.4-5.3-4.8
				c-1.7-1.6-4.3-1.6-6,0c-0.6,0.5-3.5,3.2-8.8,8l0,0C62.2,41.4,49,53.3,46.3,55.7c-4.1,3.7-4.4,10-0.7,14.1
				c0.2,0.2,0.5,0.5,0.7,0.7c2.6,2.4,15.8,14.3,39.6,35.8l0,0c5.5,5,8.6,7.8,9.2,8.4c1.7,1.5,4.3,1.5,6,0c0.5-0.5,4.8-4.3,5.3-4.8
				c1.8-1.7,2-4.5,0.3-6.3c-0.1-0.1-0.2-0.2-0.3-0.3C105.9,102.7,103.9,100.8,103.6,100.5z"/>
		</g>
	</g>
</g>
<g id="bZSuAM6oV">
	<g>
		<g class="st4">
			<path class="st2" d="M184.9,103.8V64.7h12.8c4.2,0,7.4,0.9,9.6,2.6c2.1,1.8,3.2,4.4,3.2,7.8c0,1.8-0.5,3.4-1.6,4.8
				c-1,1.4-2.5,2.5-4.2,3.3c2.1,0.6,3.8,1.7,5,3.4c1.2,1.7,1.8,3.6,1.8,5.9c0,3.5-1.1,6.3-3.4,8.3c-2.3,2-5.5,3-9.6,3H184.9z
				 M190,81.4h7.8c2.3,0,4.1-0.6,5.4-1.7c1.4-1.1,2-2.7,2-4.6c0-2.2-0.6-3.7-1.9-4.7c-1.3-1-3.2-1.5-5.7-1.5H190V81.4z M190,85.5
				v14.1h8.5c2.4,0,4.3-0.6,5.7-1.9c1.4-1.2,2.1-3,2.1-5.1c0-4.7-2.6-7.1-7.7-7.1H190z"/>
			<path class="st2" d="M236.3,100.9c-1.9,2.3-4.8,3.4-8.5,3.4c-3.1,0-5.5-0.9-7.1-2.7c-1.6-1.8-2.4-4.5-2.5-8V74.8h5v18.8
				c0,4.4,1.8,6.6,5.4,6.6c3.8,0,6.3-1.4,7.6-4.2V74.8h5v29.1h-4.7L236.3,100.9z"/>
			<path class="st2" d="M248.7,67.1c0-0.8,0.2-1.5,0.7-2c0.5-0.6,1.2-0.8,2.2-0.8s1.7,0.3,2.2,0.8c0.5,0.6,0.8,1.2,0.8,2
				c0,0.8-0.3,1.5-0.8,2c-0.5,0.5-1.2,0.8-2.2,0.8s-1.7-0.3-2.2-0.8C248.9,68.5,248.7,67.9,248.7,67.1z M254,103.8h-5V74.8h5V103.8z
				"/>
			<path class="st2" d="M267.4,103.8h-5V62.6h5V103.8z"/>
			<path class="st2" d="M274.1,89c0-4.5,1.1-8,3.2-10.8c2.1-2.7,4.9-4.1,8.3-4.1c3.4,0,6.1,1.2,8.1,3.5V62.6h5v41.2h-4.6l-0.2-3.1
				c-2,2.4-4.8,3.7-8.3,3.7c-3.4,0-6.1-1.4-8.2-4.1c-2.1-2.8-3.2-6.4-3.2-10.8V89z M279.1,89.6c0,3.3,0.7,5.9,2,7.7
				c1.4,1.9,3.2,2.8,5.6,2.8c3.2,0,5.5-1.4,6.9-4.2V82.5c-1.5-2.7-3.8-4.1-6.8-4.1c-2.4,0-4.3,0.9-5.7,2.8
				C279.8,83.1,279.1,85.9,279.1,89.6z"/>
			<path class="st2" d="M322.4,103.8V78.6h-4.6v-3.8h4.6v-3c0-3.1,0.8-5.5,2.5-7.2s4-2.6,7.1-2.6c1.1,0,2.3,0.2,3.4,0.5l-0.3,4
				c-0.8-0.2-1.7-0.2-2.7-0.2c-1.6,0-2.9,0.5-3.7,1.4c-0.9,0.9-1.3,2.3-1.3,4.1v3.1h6.2v3.8h-6.2v25.2H322.4z"/>
			<path class="st2" d="M337.7,89c0-2.8,0.6-5.4,1.7-7.7c1.1-2.3,2.7-4,4.7-5.3c2-1.2,4.3-1.9,6.8-1.9c4,0,7.2,1.4,9.6,4.1
				c2.4,2.7,3.7,6.4,3.7,10.9v0.3c0,2.8-0.5,5.4-1.6,7.6s-2.6,4-4.6,5.2c-2,1.3-4.3,1.9-6.9,1.9c-3.9,0-7.1-1.4-9.6-4.1
				c-2.4-2.7-3.7-6.4-3.7-10.9V89z M342.7,89.6c0,3.2,0.7,5.8,2.2,7.8c1.5,2,3.5,2.9,6,2.9c2.5,0,4.5-1,6-3c1.5-2,2.2-4.7,2.2-8.3
				c0-3.2-0.8-5.8-2.3-7.7c-1.5-2-3.5-3-6-3c-2.5,0-4.4,1-5.9,2.9C343.5,83.2,342.7,86,342.7,89.6z"/>
			<path class="st2" d="M384.5,79.2c-0.8-0.1-1.6-0.2-2.4-0.2c-3.3,0-5.5,1.4-6.6,4.2v20.6h-5V74.8h4.8l0.1,3.4
				c1.6-2.6,3.9-3.9,6.9-3.9c1,0,1.7,0.1,2.2,0.4V79.2z"/>
			<path class="st2" d="M408.6,99.6h18.5v4.2h-23.7V64.7h5.2V99.6z"/>
			<path class="st2" d="M430.9,89c0-2.8,0.6-5.4,1.7-7.7c1.1-2.3,2.7-4,4.7-5.3c2-1.2,4.3-1.9,6.8-1.9c4,0,7.2,1.4,9.6,4.1
				c2.4,2.7,3.7,6.4,3.7,10.9v0.3c0,2.8-0.5,5.4-1.6,7.6s-2.6,4-4.6,5.2c-2,1.3-4.3,1.9-6.9,1.9c-3.9,0-7.1-1.4-9.6-4.1
				c-2.4-2.7-3.7-6.4-3.7-10.9V89z M435.9,89.6c0,3.2,0.7,5.8,2.2,7.8c1.5,2,3.5,2.9,6,2.9c2.5,0,4.5-1,6-3c1.5-2,2.2-4.7,2.2-8.3
				c0-3.2-0.8-5.8-2.3-7.7c-1.5-2-3.5-3-6-3c-2.5,0-4.4,1-5.9,2.9C436.7,83.2,435.9,86,435.9,89.6z"/>
			<path class="st2" d="M471.7,90.4l-3.1,3.2v10.2h-5V62.6h5v24.9l2.7-3.2l9.1-9.6h6l-11.3,12.1l12.6,16.9h-5.8L471.7,90.4z"/>
			<path class="st2" d="M491.5,67.1c0-0.8,0.2-1.5,0.7-2c0.5-0.6,1.2-0.8,2.2-0.8s1.7,0.3,2.2,0.8c0.5,0.6,0.8,1.2,0.8,2
				c0,0.8-0.3,1.5-0.8,2c-0.5,0.5-1.2,0.8-2.2,0.8s-1.7-0.3-2.2-0.8C491.8,68.5,491.5,67.9,491.5,67.1z M496.9,103.8h-5V74.8h5
				V103.8z"/>
			<path class="st2" d="M509.5,74.8l0.2,3.7c2.2-2.8,5.1-4.2,8.7-4.2c6.1,0,9.2,3.5,9.3,10.4v19.2h-5V84.6c0-2.1-0.5-3.6-1.4-4.6
				c-0.9-1-2.4-1.5-4.4-1.5c-1.6,0-3,0.4-4.2,1.3c-1.2,0.9-2.2,2-2.8,3.4v20.7h-5V74.8H509.5z"/>
			<path class="st2" d="M547.2,104.4c-3.9,0-7.1-1.3-9.6-3.9c-2.5-2.6-3.7-6-3.7-10.4v-0.9c0-2.9,0.5-5.5,1.7-7.7
				c1.1-2.3,2.6-4,4.6-5.3c2-1.3,4.1-1.9,6.4-1.9c3.8,0,6.7,1.2,8.8,3.7c2.1,2.5,3.1,6.1,3.1,10.7v2.1h-19.7
				c0.1,2.9,0.9,5.2,2.5,6.9c1.6,1.8,3.6,2.6,6.1,2.6c1.8,0,3.2-0.4,4.5-1.1c1.2-0.7,2.3-1.7,3.2-2.8l3,2.4
				C555.8,102.5,552.1,104.4,547.2,104.4z M546.6,78.3c-2,0-3.7,0.7-5,2.2c-1.4,1.5-2.2,3.5-2.5,6.1h14.6v-0.4
				c-0.1-2.5-0.8-4.5-2-5.9C550.3,79,548.7,78.3,546.6,78.3z"/>
			<path class="st2" d="M571.1,67.7v7h5.4v3.8h-5.4v18c0,1.2,0.2,2,0.7,2.6c0.5,0.6,1.3,0.9,2.5,0.9c0.6,0,1.4-0.1,2.4-0.3v4
				c-1.3,0.4-2.6,0.5-3.8,0.5c-2.2,0-3.9-0.7-5-2c-1.1-1.3-1.7-3.2-1.7-5.7v-18h-5.3v-3.8h5.3v-7H571.1z"/>
		</g>
	</g>
</g>
</svg>
