<?xml version="1.0" encoding="utf-8"?>
<svg version="1.1" id="Layer_1" xmlns="http://www.w3.org/2000/svg" xmlns:xlink="http://www.w3.org/1999/xlink" x="0px" y="0px"
	 viewBox="0 0 1500 185.4" style="enable-background:new 0 0 1500 185.4;" xml:space="preserve">
<style type="text/css">
	.st0{fill:#FFFFFF;}
	.st1{fill:#DB58C0;}
	.st2{fill:#47EABB;}
	.st3{display:none;}
	.st4{display:inline;fill:#47EABB;}
	.st5{display:inline;fill:#DB58C0;}
</style>
<g>
	<g>
		<g>
			<polygon class="st0" points="1008.8,90.3 1008.8,110.5 1008.8,170.4 1049.3,170.4 1049.3,110.5 1113.4,110.5 1113.4,79.2 
				1008.8,79.2 			"/>
			<path class="st1" d="M1040.5,14.9c-11.8,0-22.5,7.3-26.7,18.3l-5,13h40.5h80.4V14.9H1040.5z"/>
		</g>
		<g>
			<rect x="1153" y="14.9" class="st1" width="40.5" height="31.3"/>
			<polygon class="st0" points="1193.5,79.2 1153,79.2 1153,170.4 1271.5,170.4 1271.5,139 1193.5,139 			"/>
		</g>
		<g>
			<rect x="524.8" y="14.9" class="st2" width="40.5" height="31.3"/>
			<rect x="424.9" y="14.9" class="st2" width="40.5" height="31.3"/>
			<polygon class="st0" points="465.4,79.2 424.9,79.2 424.9,170.4 465.4,170.4 465.4,110.5 524.8,110.5 524.8,170.4 565.4,170.4 
				565.4,79.2 			"/>
		</g>
		<g>
			<path class="st0" d="M354.8,134.7c-5.3,4.2-11.7,6.2-19.2,6.2c-8,0-14.7-1.8-20.1-5.4c-5.4-3.6-9.5-9-12.1-16.3
				c-2.7-7.2-4-16.1-4-26.6c0-4.9,0.3-9.3,0.9-13.4h-41.6c-0.5,4.3-0.8,8.8-0.8,13.4c0,16.8,3.1,31.2,9.2,43.1s14.9,21.1,26.4,27.5
				s25.1,9.5,40.8,9.5c11,0,21.1-1.6,30.2-4.8s17-8.3,23.6-15.3s11.4-15.9,14.4-26.7l-36.8-10.4
				C363.7,124.1,360.1,130.5,354.8,134.7z"/>
			<path class="st2" d="M397.1,46.2c-2.6-5.8-5.9-10.9-10.1-15.1c-6.3-6.3-14-11-23.1-14c-9.1-3.1-19.1-4.6-29.9-4.6
				c-15.6,0-29.1,3.2-40.5,9.5C283.1,27.8,275,35.9,269,46.2H397.1z"/>
		</g>
		<g>
			<polygon class="st0" points="615.6,79.2 583.5,170.4 624.3,170.4 652.6,79.2 			"/>
			<polygon class="st2" points="697.7,46.2 686.7,14.9 638.2,14.9 627.1,46.2 			"/>
			<polygon class="st0" points="671.7,79.2 680.4,107.7 680.4,107.7 688.7,135.3 688.7,135.3 699.4,170.4 741.1,170.4 709.2,79.2 
							"/>
		</g>
		<g>
			<rect x="759.3" y="14.9" class="st2" width="40.5" height="31.3"/>
			<rect x="759.3" y="79.2" class="st0" width="40.5" height="91.2"/>
		</g>
		<g>
			<polygon class="st2" points="897.2,46.2 879.2,14.9 834.2,14.9 834.2,46.2 			"/>
			<rect x="938.6" y="14.9" class="st2" width="35.8" height="31.3"/>
			<polygon class="st0" points="834.2,79.2 834.2,170.4 870,170.4 870,91.9 869.6,79.2 			"/>
			<polygon class="st0" points="938.6,79.2 938.6,93.3 939.5,122.1 939.3,122.1 927.5,99 916.1,79.2 877.5,79.2 881.1,86.2 
				929.4,170.4 974.4,170.4 974.4,79.2 			"/>
		</g>
		<g>
			<path class="st1" d="M1410.3,46.2h33.7h53.8c-1-2.6-2.1-5.2-3.6-7.5c-4.7-7.7-11.5-13.6-20.5-17.7s-19.8-6.1-32.5-6.1h-71.4v31.3
				C1369.8,46.2,1410.3,46.2,1410.3,46.2z"/>
			<path class="st0" d="M1410.3,79.2h-40.5v91.2h40.5v-51.8h30.9c12.7,0,23.6-2,32.5-6.1c9-4.1,15.8-10,20.5-17.7
				c2.8-4.6,4.7-9.8,5.8-15.6C1500,79.2,1410.3,79.2,1410.3,79.2z"/>
		</g>
		<g>
			<rect x="1294.9" y="14.9" class="st1" width="40.5" height="31.3"/>
			<rect x="1294.9" y="79.2" class="st0" width="40.5" height="91.2"/>
		</g>
	</g>
	<g class="st3">
		<path class="st4" d="M192,1l-69.8,0.1c-14.3,0-28.1,5.4-38.6,15.2L50,47.6l92-0.1l0.1,92l31.8-29.6C185.5,99.1,192,84,192,68.2V1z
			"/>
		<path class="st5" d="M50,139.9l-0.1-92L18.1,77.5C6.5,88.3,0,103.3,0,119.1v67.3l69.8-0.1c14.3,0,28.1-5.4,38.6-15.2l33.6-31.3
			L50,139.9z"/>
	</g>
	<g>
		<path class="st2" d="M0,68.2C0,84,6.5,99.1,18.1,109.9l31.8,29.6l0.1-92l92,0.1l-33.6-31.3C97.9,6.5,84.1,1.1,69.8,1.1L0,1L0,68.2
			z"/>
		<path class="st1" d="M50,139.8l33.6,31.3c10.5,9.8,24.3,15.2,38.6,15.2l69.8,0.1v-67.3c0-15.8-6.5-30.8-18.1-41.6l-31.8-29.6
			l-0.1,92L50,139.8z"/>
	</g>
</g>
</svg>
