<?xml version="1.0" encoding="utf-8"?>
<svg version="1.1" id="Layer_1" xmlns="http://www.w3.org/2000/svg" xmlns:xlink="http://www.w3.org/1999/xlink" x="0px" y="0px"
	 viewBox="0 0 510.8 510.8" style="enable-background:new 0 0 510.8 510.8;" xml:space="preserve">
<style type="text/css">
	.st0{fill:#FFFFFF;}
</style>
<path class="st0" d="M257.1,17.4c32.1,0,63.3,6.3,92.6,18.7c28.3,12,53.8,29.2,75.7,51c21.9,21.9,39,47.3,51,75.7
	c12.4,29.3,18.7,60.5,18.7,92.6s-6.3,63.3-18.7,92.6c-12,28.3-29.2,53.8-51,75.7c-21.9,21.9-47.3,39-75.7,51
	c-29.3,12.4-60.5,18.7-92.6,18.7s-63.3-6.3-92.6-18.7c-28.3-12-53.8-29.2-75.7-51c-21.9-21.9-39-47.3-51-75.7
	c-12.4-29.3-18.7-60.5-18.7-92.6s6.3-63.3,18.7-92.6c12-28.3,29.2-53.8,51-75.7s47.3-39,75.7-51C193.8,23.7,225,17.4,257.1,17.4
	 M257.1,0C116,0,1.7,114.3,1.7,255.4S116,510.8,257.1,510.8s255.4-114.3,255.4-255.4S398.1,0,257.1,0L257.1,0z"/>
<g>
	<g>
		<polygon class="st0" points="240.2,336.1 114.8,210.8 244.8,80.8 279.4,115.4 184.1,210.8 274.8,301.5 		"/>
	</g>
	<g>
		<polygon class="st0" points="269.4,430 234.8,395.4 330.1,300 239.4,209.3 274,174.7 399.4,300 		"/>
	</g>
</g>
<g>
	<path class="st0" d="M463.3,248.1h16.9c-1.8-56.5-24.7-107.8-61-146.1l-11.9,11.9C441.9,150.6,461.6,197.8,463.3,248.1z"/>
	<path class="st0" d="M263.8,32.2v16.9c50.2,1.6,97.2,21,133.9,55.3l12-11.9C371.3,56.5,320.2,33.9,263.8,32.2z"/>
	<path class="st0" d="M250.3,49.1V32.2c-56.4,1.7-107.5,24.2-145.9,60.2l11.9,11.9C153.1,70.2,200.2,50.7,250.3,49.1z"/>
	<path class="st0" d="M34,248.1h16.9c1.7-50.3,21.4-97.5,56-134.2l-12-11.9C58.6,140.3,35.8,191.5,34,248.1z"/>
	<path class="st0" d="M263.8,461.7v16.9c56.8-1.7,108.2-24.6,146.7-61l-11.9-11.9C361.8,440.3,314.4,460,263.8,461.7z"/>
	<path class="st0" d="M480.3,261.6h-16.9c-1.5,50.4-20.9,97.7-55.3,134.5L420,408C456.1,369.5,478.7,318.2,480.3,261.6z"/>
	<path class="st0" d="M50.8,261.6H33.9C35.4,318.2,58,369.5,94.1,408l11.9-11.9C71.7,359.2,52.3,312,50.8,261.6z"/>
	<path class="st0" d="M250.3,478.5v-16.9c-50.5-1.6-97.9-21.3-134.7-56l-11.9,12C142.2,454,193.6,476.9,250.3,478.5z"/>
</g>
</svg>
