<svg id="Layer_1" xmlns="http://www.w3.org/2000/svg" viewBox="0 0 178.63 198.22">
    <defs>
        <style>.cls-1{fill:#00f782;}</style>
    </defs>
    <path class="cls-1"
          d="M150.7,100.71,113.28,80h25.36a40,40,0,1,0,0-80H50.1A50.15,50.15,0,0,0,0,50.1,54.24,54.24,0,0,0,27.94,97.52l37.41,20.73H40a40,40,0,1,0,0,80h88.54a50.15,50.15,0,0,0,50.1-50.09A54.22,54.22,0,0,0,150.7,100.71Zm-116.76-14A41.86,41.86,0,0,1,12.4,51.08c-.5-21.27,17.37-38.69,38.65-38.69h86.79c14.84,0,27.63,11.38,28.37,26.21a27.64,27.64,0,0,1-27.57,29h-50a5.53,5.53,0,0,0-5.52,5.54v40.8Zm93.64,99.15H40.79c-14.84,0-27.63-11.38-28.36-26.2a27.62,27.62,0,0,1,27.56-29H90a5.54,5.54,0,0,0,5.53-5.54V84.3l49.18,27.25a41.83,41.83,0,0,1,21.54,35.59C166.73,168.41,148.86,185.83,127.58,185.83Z"/>
</svg>