<svg id="Layer_1" xmlns="http://www.w3.org/2000/svg" viewBox="0 0 1000.73 198.22">
    <defs>
        <style>.cls-1{fill:#333132;}.cls-2{fill:#00f782;}</style>
    </defs>
    <path class="cls-1"
          d="M225.83,116.52h25.7c-.14,6.63,8.33,13.55,28.66,13.84,18.92.14,33.46-2.41,33.46-11.16,0-19.2-85.7,3.25-85.7-39.1,0-20.2,21-32.48,52.24-32.48,32.33,0,54.36,13.56,54.64,34.45H309c.14-6.78-7.2-13.69-27-13.84C264.94,68,252.52,70.64,252.52,79c0,18.49,85.56-2,85.56,39.39,0,20.33-22.45,32.61-55.77,32.61C247.86,151,225.41,137.28,225.83,116.52Z"/>
    <path class="cls-1" d="M353,49.88h96.29V70.49h-72V88.85h70.74v19.34H377.31V128.1h72v20.61H353Z"/>
    <path class="cls-1"
          d="M462.86,116.52h25.69c-.14,6.63,8.33,13.55,28.66,13.84,18.92.14,33.47-2.41,33.47-11.16,0-19.2-85.7,3.25-85.7-39.1,0-20.2,21-32.48,52.23-32.48,32.34,0,54.36,13.56,54.64,34.45H546c.14-6.78-7.21-13.69-27-13.84C502,68,489.54,70.64,489.54,79c0,18.49,85.56-2,85.56,39.39,0,20.33-22.45,32.61-55.77,32.61C484.88,151,462.43,137.28,462.86,116.52Z"/>
    <path class="cls-1"
          d="M584.12,116.52h25.7c-.14,6.63,8.33,13.55,28.66,13.84,18.92.14,33.46-2.41,33.46-11.16,0-19.2-85.7,3.25-85.7-39.1,0-20.2,21-32.48,52.24-32.48,32.33,0,54.36,13.56,54.64,34.45H667.28c.14-6.78-7.2-13.69-27-13.84C623.23,68,610.81,70.64,610.81,79c0,18.49,85.56-2,85.56,39.39,0,20.33-22.45,32.61-55.77,32.61C606.15,151,583.7,137.28,584.12,116.52Z"/>
    <path class="cls-1" d="M711.32,49.88H735.6v98.83H711.32Z"/>
    <path class="cls-1"
          d="M748.73,99.3c0-31.07,23.86-51.68,62.4-51.68,38.69,0,62.55,20.61,62.55,51.68S849.82,151,811.13,151C772.59,151,748.73,130.36,748.73,99.3Zm100.67,0c0-20-14.54-31.07-38.27-31.07-23.57,0-38.11,11-38.11,31.07s14.54,31.06,38.11,31.06C834.86,130.36,849.4,119.2,849.4,99.3Z"/>
    <path class="cls-1" d="M886.8,49.88h20.33l69.32,62.83V49.88h24.28v98.83H980.26L911.08,85.88v62.83H886.8Z"/>
    <path class="cls-2"
          d="M150.7,100.71,113.28,80h25.36a40,40,0,1,0,0-80H50.1A50.15,50.15,0,0,0,0,50.1,54.24,54.24,0,0,0,27.94,97.52l37.41,20.73H40a40,40,0,1,0,0,80h88.54a50.15,50.15,0,0,0,50.1-50.09A54.22,54.22,0,0,0,150.7,100.71Zm-116.76-14A41.86,41.86,0,0,1,12.4,51.08c-.5-21.27,17.37-38.69,38.65-38.69h86.79c14.84,0,27.63,11.38,28.37,26.21a27.64,27.64,0,0,1-27.57,29h-50a5.53,5.53,0,0,0-5.52,5.54v40.8Zm93.64,99.15H40.79c-14.84,0-27.63-11.38-28.36-26.2a27.62,27.62,0,0,1,27.56-29H90a5.54,5.54,0,0,0,5.53-5.54V84.3l49.18,27.25a41.83,41.83,0,0,1,21.54,35.59C166.73,168.41,148.86,185.83,127.58,185.83Z"/>
</svg>