<?xml version="1.0" encoding="UTF-8" standalone="no"?>
<!DOCTYPE svg PUBLIC "-//W3C//DTD SVG 1.1//EN" "http://www.w3.org/Graphics/SVG/1.1/DTD/svg11.dtd">
<svg version="1.1" xmlns="http://www.w3.org/2000/svg" xmlns:xlink="http://www.w3.org/1999/xlink" preserveAspectRatio="xMidYMid meet" viewBox="0 0 640 640" width="640" height="640"><defs><path d="M322.51 377.55L330.13 384.52C338.4 391.98 342.99 396.12 343.91 396.95C344.62 397.6 345.27 398.27 345.91 398.95C347.2 400.15 357.53 409.7 358.82 410.89C366.99 418.21 367.68 430.76 360.37 438.93C360.09 439.25 385.52 416.38 436.68 370.32L383.61 322.23L322.51 377.55Z" id="a1uq75ZX4y"></path><path d="M561.79 239.4C561.47 221.04 553.49 203.65 539.77 191.44C521.91 175.51 379.04 48.08 361.18 32.15C366.18 40.28 364.67 50.82 357.6 57.23C356.7 58.03 352.25 62.07 344.23 69.33L344.01 69.59L320.28 91.15L480.7 234.33L436.77 274.1C503.08 334.14 539.92 367.49 547.29 374.16C556.55 382.58 561.82 394.51 561.82 407.02C561.82 408.22 561.82 409.44 561.62 410.64C561.75 409.36 561.82 408.08 561.82 406.8C561.82 390.18 561.82 257.25 561.82 240.63C561.82 240.37 561.79 240.18 561.79 239.89C561.8 239.73 561.8 239.56 561.79 239.4Z" id="cluvNb38i"></path><path d="M319.99 264.68C297.95 244.73 285.71 233.65 283.26 231.43C275.14 224.09 274.51 211.56 281.85 203.44C282.29 202.94 282.76 202.47 283.26 202.02C283.92 201.42 287.24 198.41 293.2 192.99C293.41 192.73 293.53 192.59 293.56 192.57C295.3 190.68 297.22 188.97 299.3 187.47C299.3 187.47 299.3 187.47 299.3 187.47C298.18 188.27 297.1 189.15 296.07 190.08C290.05 195.54 259.92 222.85 205.7 272L258.76 320.06L319.99 264.68Z" id="cXvclIviu"></path><path d="M293.85 572.64C294.56 571.9 295.27 571.12 296.07 570.41C297.66 568.98 305.58 561.83 319.83 548.95L161.73 408.02L205.6 368.32C137.82 307.18 100.16 273.21 92.63 266.42C83.39 257.98 78.15 246.04 78.2 233.53C78.2 232.11 78.2 230.72 78.42 229.3C78.2 230.49 78.2 231.95 78.2 233.27C78.2 249.89 78.2 382.85 78.2 399.47C78.2 418.26 86.22 436.15 100.24 448.66C118.15 464.63 261.44 592.43 279.35 608.4C273.96 600.22 275.33 589.33 282.58 582.74C284.83 580.72 292.72 573.65 293.85 572.64Z" id="atR3UsTmU"></path><path d="M547.29 374.16C526.96 355.76 364.28 208.58 343.94 190.18C343.72 189.95 343.46 189.79 343.23 189.6C342.26 188.71 334.52 181.64 333.55 180.75C325.99 173.92 314.48 173.92 306.92 180.75C306.16 181.43 300.12 186.88 299.37 187.56C297.29 189.07 295.36 190.78 293.62 192.66C293.6 192.69 293.48 192.83 293.27 193.08C287.3 198.51 283.99 201.52 283.32 202.12C275.2 209.46 274.57 221.99 281.91 230.11C282.36 230.61 282.83 231.08 283.32 231.53C285.79 233.75 298.11 244.85 320.28 264.84L320.28 264.84L477.22 406.86C368.53 504.95 308.15 559.45 296.07 570.35C295.27 571.06 294.56 571.83 293.85 572.57C292.72 573.59 283.71 581.73 282.58 582.74C274.45 590.12 273.85 602.7 281.23 610.83C281.66 611.3 282.11 611.75 282.58 612.18C284.94 614.32 303.82 631.41 306.18 633.55C313.74 640.38 325.25 640.38 332.81 633.55C335.41 631.18 348.43 619.34 371.86 598.04L371.86 598.04C477.14 503.03 535.63 450.24 547.32 439.69C556.52 431.31 561.78 419.46 561.82 407.02C561.82 394.51 556.55 382.58 547.29 374.16Z" id="e1AdLsIhg"></path><path d="M346.12 398.95C345.47 398.27 344.83 397.6 344.12 396.95C343.2 396.12 338.61 391.98 330.34 384.52L322.07 376.97L322.07 376.97L162.91 233.46L344.02 69.59L344.25 69.33C352.27 62.07 356.72 58.03 357.61 57.23C365.73 49.89 366.36 37.35 359.02 29.23C358.58 28.74 358.1 28.27 357.61 27.82C355.25 25.68 336.4 8.59 334.05 6.45C326.49 -0.38 314.98 -0.38 307.42 6.45C304.81 8.82 291.8 20.66 268.36 41.96L268.36 41.96C162.99 137.2 104.45 190.12 92.74 200.7C74.63 217.11 73.25 245.1 89.66 263.21C90.63 264.29 91.66 265.31 92.74 266.29C104.42 276.83 162.85 329.55 268.01 424.45L268.01 424.45C292.47 446.68 306.06 459.04 308.77 461.51C316.33 468.34 327.84 468.34 335.4 461.51C337.77 459.39 356.67 442.42 359.03 440.3C367.15 432.93 367.76 420.38 360.4 412.26C359.96 411.78 359.51 411.33 359.03 410.89C356.45 408.51 347.41 400.15 346.12 398.95Z" id="dG00QzPbI"></path></defs><g><g><g><use xlink:href="#a1uq75ZX4y" opacity="1" fill="#78be20" fill-opacity="1"></use><g><use xlink:href="#a1uq75ZX4y" opacity="1" fill-opacity="0" stroke="#000000" stroke-width="1" stroke-opacity="0"></use></g></g><g><use xlink:href="#cluvNb38i" opacity="1" fill="#78be20" fill-opacity="1"></use><g><use xlink:href="#cluvNb38i" opacity="1" fill-opacity="0" stroke="#000000" stroke-width="1" stroke-opacity="0"></use></g></g><g><use xlink:href="#cXvclIviu" opacity="1" fill="#78be20" fill-opacity="1"></use><g><use xlink:href="#cXvclIviu" opacity="1" fill-opacity="0" stroke="#000000" stroke-width="1" stroke-opacity="0"></use></g></g><g><use xlink:href="#atR3UsTmU" opacity="1" fill="#78be20" fill-opacity="1"></use><g><use xlink:href="#atR3UsTmU" opacity="1" fill-opacity="0" stroke="#000000" stroke-width="1" stroke-opacity="0"></use></g></g><g><use xlink:href="#e1AdLsIhg" opacity="1" fill="#1c1c1c" fill-opacity="1"></use><g><use xlink:href="#e1AdLsIhg" opacity="1" fill-opacity="0" stroke="#000000" stroke-width="1" stroke-opacity="0"></use></g></g><g><use xlink:href="#dG00QzPbI" opacity="1" fill="#1c1c1c" fill-opacity="1"></use><g><use xlink:href="#dG00QzPbI" opacity="1" fill-opacity="0" stroke="#000000" stroke-width="1" stroke-opacity="0"></use></g></g></g></g></svg>